<svg xmlns="http://www.w3.org/2000/svg" viewBox="0 0 489.821 489.821"><path fill="none" d="M0 0h489.82v489.82H0z"/><path d="M182.756 121.008c.62 0 1.25-.136 1.844-.423 18.754-9.05 38.9-13.637 59.88-13.637a4.25 4.25 0 0 0 0-8.5c-22.27 0-43.658 4.872-63.573 14.48a4.25 4.25 0 0 0 1.85 8.08zm-35.828 20.338a4.25 4.25 0 0 0-6.01 0c-27.663 27.662-42.897 64.44-42.897 103.562a4.25 4.25 0 0 0 8.5 0c0-36.85 14.353-71.495 40.41-97.55a4.25 4.25 0 0 0 0-6.012zM342.032 348.47c.83.83 1.917 1.246 3.005 1.246s2.176-.415 3.005-1.245c27.662-27.66 42.897-64.44 42.897-103.56a4.25 4.25 0 0 0-8.5 0c0 36.85-14.35 71.495-40.408 97.55a4.25 4.25 0 0 0 0 6.01zM244.48 121.41c-32.987 0-64 12.845-87.327 36.17-23.326 23.327-36.173 54.34-36.173 87.328 0 32.987 12.847 64 36.173 87.327 23.326 23.326 54.34 36.17 87.327 36.17s64.002-12.845 87.328-36.17c23.326-23.326 36.173-54.34 36.173-87.328s-12.845-64-36.17-87.33c-23.328-23.323-54.34-36.168-87.33-36.168zm0 144.642c-5.646 0-10.957-2.2-14.952-6.194 0 0-.003 0-.003-.003a21.005 21.005 0 0 1-6.188-14.947 21.02 21.02 0 0 1 6.19-14.952 21.012 21.012 0 0 1 14.952-6.193c5.646 0 10.956 2.2 14.95 6.193a21.006 21.006 0 0 1 6.192 14.952c0 5.648-2.2 10.958-6.192 14.95v.003a21.008 21.008 0 0 1-14.95 6.193zm17.742-44.897a29.316 29.316 0 0 0-13.492-5.588v-85.573c27.71 1 53.7 11.765 74.002 30.65l-60.51 60.51zm-21.992-5.588a29.34 29.34 0 0 0-13.492 5.588l-60.51-60.51c20.303-18.886 46.293-29.65 74.002-30.65v85.572zm-80.012-48.91l60.51 60.51a29.315 29.315 0 0 0-5.587 13.49h-85.574c1-27.71 11.765-53.7 30.653-74zm54.923 82.5a29.31 29.31 0 0 0 5.59 13.492l-60.51 60.51c-18.89-20.303-29.653-46.293-30.654-74.003h85.576zm11.6 19.502a29.337 29.337 0 0 0 13.49 5.587v85.573c-27.71-1-53.7-11.765-74-30.65l60.51-60.51zm21.99 5.587c4.91-.7 9.526-2.612 13.493-5.59l60.51 60.51c-20.302 18.887-46.292 29.652-74.002 30.653v-85.57zm80.013 48.91l-60.51-60.51a29.316 29.316 0 0 0 5.588-13.49h85.576c-1 27.71-11.765 53.7-30.653 74zm-54.92-82.5a29.325 29.325 0 0 0-5.59-13.493l60.51-60.51c18.89 20.302 29.654 46.292 30.654 74.002H273.82z" fill="#fff"/><path d="M471.583 226.6h-34.24c-8.365 0-15.322 6.084-16.717 14.058h-11.87c-1.036-41.085-17.082-79.63-45.52-109.33l9.768-9.768a16.853 16.853 0 0 0 9.76 3.097c4.537 0 8.803-1.767 12.01-4.975l24.213-24.21a16.875 16.875 0 0 0 4.976-12.012 16.88 16.88 0 0 0-4.975-12.013l-1.868-1.868a16.876 16.876 0 0 0-12.01-4.977 16.88 16.88 0 0 0-12.015 4.977l-24.21 24.21c-5.915 5.914-6.533 15.13-1.886 21.755l-9.798 9.796c-29.582-27.93-67.78-43.68-108.472-44.707V67.945c7.98-1.39 14.07-8.347 14.07-16.718v-34.24C262.8 7.62 255.18 0 245.815 0h-2.64c-9.368 0-16.99 7.62-16.99 16.988v34.24c0 8.36 6.078 15.314 14.046 16.714v12.69c-39.902 1.006-77.406 16.175-106.74 43.1l-9.007-9.008c4.657-6.625 4.043-15.85-1.875-21.77l-24.21-24.208a16.876 16.876 0 0 0-12.01-4.977 16.88 16.88 0 0 0-12.014 4.974l-1.867 1.867a16.873 16.873 0 0 0-4.976 12.013c0 4.538 1.768 8.804 4.977 12.012l24.208 24.21a16.88 16.88 0 0 0 12.014 4.977 16.85 16.85 0 0 0 9.744-3.086l8.9 8.9c-29.463 29.92-46.112 69.15-47.17 111.02h-11.01C67.8 232.684 60.844 226.6 52.48 226.6l-34.24-.002c-9.367 0-16.988 7.62-16.988 16.99v2.64c0 9.366 7.62 16.987 16.99 16.987H52.48c8.365 0 15.32-6.084 16.716-14.058h11.01c1.052 41.632 17.52 80.652 46.67 110.508l-7.596 7.597a16.854 16.854 0 0 0-9.745-3.086 16.87 16.87 0 0 0-12.013 4.976l-24.21 24.21a16.874 16.874 0 0 0-4.978 12.01c0 4.54 1.768 8.805 4.977 12.014l1.867 1.868a16.883 16.883 0 0 0 12.014 4.975c4.538 0 8.804-1.77 12.01-4.977l24.21-24.21a16.875 16.875 0 0 0 4.98-12.013c0-3.547-1.094-6.92-3.1-9.76l7.676-7.674c29.412 27.228 67.124 42.575 107.266 43.587v12.696c-7.966 1.4-14.044 8.35-14.044 16.714v34.24c0 9.366 7.62 16.986 16.988 16.986h2.64c9.367 0 16.987-7.62 16.987-16.986l.002-34.24c0-8.37-6.09-15.33-14.07-16.72v-12.69c41.28-1.04 79.995-17.24 109.753-45.932l9.348 9.35c-4.645 6.622-4.026 15.838 1.887 21.752l24.21 24.21a16.88 16.88 0 0 0 12.012 4.976c4.538 0 8.804-1.767 12.012-4.975l1.87-1.868c6.62-6.623 6.62-17.4-.002-24.025l-24.21-24.21a16.877 16.877 0 0 0-12.012-4.976c-3.55 0-6.923 1.094-9.763 3.1l-9.385-9.386c27.677-29.522 43.284-67.546 44.305-108.04h11.87c1.397 7.973 8.353 14.057 16.72 14.057h34.238c9.367 0 16.988-7.62 16.988-16.988v-2.64c0-9.37-7.623-16.99-16.99-16.99zm-96.69-126.8l24.212-24.21a8.436 8.436 0 0 1 6.004-2.486 8.43 8.43 0 0 1 6 2.485l1.866 1.866a8.435 8.435 0 0 1 2.485 6.003c0 2.267-.882 4.4-2.484 6l-24.212 24.21a8.432 8.432 0 0 1-6 2.486 8.433 8.433 0 0 1-6.003-2.486l-1.867-1.867c-3.31-3.31-3.31-8.694 0-12.004zm-140.21-48.572l.002-34.24c0-4.68 3.808-8.488 8.488-8.488h2.64c4.68 0 8.488 3.808 8.488 8.49v34.238c0 4.68-3.806 8.487-8.487 8.487h-2.64c-4.68 0-8.488-3.808-8.488-8.487zM108.73 115.323c-2.268 0-4.4-.883-6.004-2.486l-24.208-24.21c-1.602-1.603-2.485-3.735-2.485-6.002s.883-4.398 2.486-6l1.866-1.87a8.436 8.436 0 0 1 6.003-2.485c2.266 0 4.397.883 6 2.487l24.21 24.21c3.31 3.31 3.31 8.695 0 12.005l-1.865 1.865a8.444 8.444 0 0 1-6.004 2.486zM60.964 246.228c0 4.68-3.807 8.488-8.486 8.488h-34.24c-4.68 0-8.488-3.808-8.488-8.488v-2.64c0-4.68 3.81-8.49 8.49-8.49l34.238.002c4.68 0 8.486 3.808 8.486 8.488v2.64zM117.4 389.034l-24.21 24.21a8.432 8.432 0 0 1-6 2.485 8.44 8.44 0 0 1-6.004-2.488l-1.867-1.867a8.432 8.432 0 0 1-2.488-6.002 8.43 8.43 0 0 1 2.486-6l24.21-24.21c1.604-1.604 3.735-2.487 6.003-2.487s4.4.883 6 2.484l1.87 1.87a8.428 8.428 0 0 1 2.487 6.002 8.43 8.43 0 0 1-2.487 6.002zm136.9 49.56v34.24c0 4.68-3.807 8.486-8.486 8.486h-2.64c-4.682 0-8.49-3.808-8.49-8.487v-34.24c0-4.68 3.81-8.488 8.49-8.488h2.64c4.68 0 8.487 3.81 8.487 8.49zm129.298-66.61c2.267 0 4.398.882 6 2.486l24.21 24.21c3.31 3.31 3.31 8.695.002 12.004l-1.87 1.868a8.43 8.43 0 0 1-6 2.486 8.435 8.435 0 0 1-6.002-2.486l-24.21-24.21c-3.31-3.31-3.31-8.695 0-12.004l1.868-1.868a8.43 8.43 0 0 1 6.002-2.486zm-28.928-16.887c-29.434 29.432-68.566 45.64-110.19 45.64-41.623 0-80.756-16.21-110.19-45.64-29.43-29.433-45.64-68.566-45.64-110.19 0-41.623 16.21-80.756 45.64-110.188 29.435-29.435 68.566-45.644 110.19-45.644s80.757 16.21 110.19 45.64c29.432 29.434 45.64 68.567 45.64 110.19 0 41.625-16.208 80.758-45.64 110.19zm125.402-108.87c0 4.682-3.808 8.49-8.488 8.49h-34.24c-4.68 0-8.487-3.81-8.487-8.488v-2.64c0-4.683 3.808-8.49 8.488-8.49h34.24c4.68 0 8.487 3.81 8.487 8.49v2.637z" fill="#fff"/></svg>