<svg xmlns="http://www.w3.org/2000/svg" viewBox="0 0 44.641 44.641"><path fill="none" d="M0 0h44.64v44.64H0z"/><path d="M42.27 19.95h-5.826c-.63 0-1.194.25-1.62.654a12.564 12.564 0 0 0-2.46-5.92 2.32 2.32 0 0 0 1.62-.674l4.12-4.116a2.373 2.373 0 1 0-3.355-3.356l-4.12 4.12a2.325 2.325 0 0 0-.673 1.622 12.59 12.59 0 0 0-5.918-2.463c.4-.422.65-.988.65-1.62v-5.82a2.372 2.372 0 0 0-4.743 0v5.822c0 .63.25 1.196.655 1.62a12.594 12.594 0 0 0-5.92 2.46 2.327 2.327 0 0 0-.672-1.62L9.894 6.538A2.372 2.372 0 1 0 6.54 9.894l4.117 4.118c.45.45 1.033.66 1.622.672a12.575 12.575 0 0 0-2.46 5.92 2.34 2.34 0 0 0-1.62-.655H2.372a2.374 2.374 0 0 0 0 4.744h5.824a2.34 2.34 0 0 0 1.62-.655 12.572 12.572 0 0 0 2.46 5.917 2.335 2.335 0 0 0-1.622.67l-4.12 4.12a2.372 2.372 0 1 0 3.355 3.356l4.12-4.12c.45-.446.66-1.034.674-1.62a12.55 12.55 0 0 0 5.92 2.46 2.33 2.33 0 0 0-.656 1.62v5.824a2.37 2.37 0 0 0 4.744 0v-5.824c0-.633-.25-1.196-.652-1.62a12.576 12.576 0 0 0 5.918-2.46 2.33 2.33 0 0 0 .67 1.62l4.122 4.12a2.372 2.372 0 1 0 3.354-3.356l-4.12-4.12a2.328 2.328 0 0 0-1.62-.67 12.544 12.544 0 0 0 2.46-5.918c.426.402.99.654 1.62.654h5.826a2.373 2.373 0 0 0 0-4.746zm-18.396-7.043c1.477.243 2.84.82 4.005 1.66l-4.007 4.007v-5.667zm-3.103 5.67l-4.006-4.01a9.485 9.485 0 0 1 4.008-1.66v5.67zm-2.195 2.194h-5.667a9.47 9.47 0 0 1 1.66-4.006l4.007 4.008zm0 3.103L14.57 27.88a9.463 9.463 0 0 1-1.66-4.007h5.665zm2.197 2.195v5.67a9.477 9.477 0 0 1-4.007-1.664l4.008-4.006zm3.104 0l4.005 4.006a9.46 9.46 0 0 1-4.005 1.663v-5.67zm2.193-2.195h5.67a9.44 9.44 0 0 1-1.665 4.006l-4.006-4.007zm0-3.1l4.005-4.01a9.443 9.443 0 0 1 1.663 4.01h-5.67z" fill="#fff"/></svg>